HIERARCHY
ROOT Hips
{
  OFFSET -24.5077 92.419 -73.7383
  CHANNELS 6 Xposition Yposition Zposition Zrotation Xrotation Yrotation
  JOINT LeftUpLeg
  {
    OFFSET 9.63379 -0.250344 0
    CHANNELS 6 Xposition Yposition Zposition Zrotation Xrotation Yrotation
    JOINT LeftLeg
    {
      OFFSET 0 -40.4779 -1.71313
      CHANNELS 6 Xposition Yposition Zposition Zrotation Xrotation Yrotation
      JOINT LeftFoot
      {
        OFFSET 0.0126047 -40.4416 -0.864524
        CHANNELS 6 Xposition Yposition Zposition Zrotation Xrotation Yrotation
        JOINT LeftToeBase
        {
          OFFSET -0.183287 -12.1867 8.28226
          CHANNELS 6 Xposition Yposition Zposition Zrotation Xrotation Yrotation
          End Site
          {
            OFFSET 0 0 9.15615
          }
        }
      }
    }
  }
  JOINT RightUpLeg
  {
    OFFSET -9.63379 -0.250344 0
    CHANNELS 6 Xposition Yposition Zposition Zrotation Xrotation Yrotation
    JOINT RightLeg
    {
      OFFSET 0 -40.478 -1.71313
      CHANNELS 6 Xposition Yposition Zposition Zrotation Xrotation Yrotation
      JOINT RightFoot
      {
        OFFSET -0.0126047 -40.4414 -0.864524
        CHANNELS 6 Xposition Yposition Zposition Zrotation Xrotation Yrotation
        JOINT RightToeBase
        {
          OFFSET 0.183287 -12.1867 8.28226
          CHANNELS 6 Xposition Yposition Zposition Zrotation Xrotation Yrotation
          End Site
          {
            OFFSET 0.00319481 0 9.156
          }
        }
      }
    }
  }
  JOINT Spine
  {
    OFFSET 0 5.60909 -1.89659
    CHANNELS 6 Xposition Yposition Zposition Zrotation Xrotation Yrotation
    JOINT Spine1
    {
      OFFSET 0 6.56349 1.09934
      CHANNELS 6 Xposition Yposition Zposition Zrotation Xrotation Yrotation
      JOINT Spine2
      {
        OFFSET 0 7.57662 1.04304
        CHANNELS 6 Xposition Yposition Zposition Zrotation Xrotation Yrotation
        JOINT Spine3
        {
          OFFSET 0 8.29213 0.399731
          CHANNELS 6 Xposition Yposition Zposition Zrotation Xrotation Yrotation
          JOINT Spine4
          {
            OFFSET 0 8.9581 -0.526302
            CHANNELS 6 Xposition Yposition Zposition Zrotation Xrotation Yrotation
            JOINT Neck
            {
              OFFSET 0 18.4163 -4.35419
              CHANNELS 6 Xposition Yposition Zposition Zrotation Xrotation Yrotation
              JOINT Head
              {
                OFFSET 0 8.97127 1.78542
                CHANNELS 6 Xposition Yposition Zposition Zrotation Xrotation Yrotation
                End Site
                {
                  OFFSET 0 19.3737 0.971395
                }
              }
            }
            JOINT LeftShoulder
            {
              OFFSET 6.14423 15.3316 -3.79324
              CHANNELS 6 Xposition Yposition Zposition Zrotation Xrotation Yrotation
              JOINT LeftArm
              {
                OFFSET 9.01906 -1.11411 -1.79347
                CHANNELS 6 Xposition Yposition Zposition Zrotation Xrotation Yrotation
                JOINT LeftForeArm
                {
                  OFFSET 27.687 0 0
                  CHANNELS 6 Xposition Yposition Zposition Zrotation Xrotation Yrotation
                  JOINT LeftHand
                  {
                    OFFSET 27.8738 0 0
                    CHANNELS 6 Xposition Yposition Zposition Zrotation Xrotation Yrotation
                    End Site
                    {
                      OFFSET 5 0 0
                    }
                  }
                }
              }
            }
            JOINT RightShoulder
            {
              OFFSET -6.14423 15.3316 -3.79324
              CHANNELS 6 Xposition Yposition Zposition Zrotation Xrotation Yrotation
              JOINT RightArm
              {
                OFFSET -9.01884 -1.11411 -1.79347
                CHANNELS 6 Xposition Yposition Zposition Zrotation Xrotation Yrotation
                JOINT RightForeArm
                {
                  OFFSET -27.0381 0.00109999 0
                  CHANNELS 6 Xposition Yposition Zposition Zrotation Xrotation Yrotation
                  JOINT RightHand
                  {
                    OFFSET -28.5227 0 0
                    CHANNELS 6 Xposition Yposition Zposition Zrotation Xrotation Yrotation
                    End Site
                    {
                      OFFSET -5 0 0
                    }
                  }
                }
              }
            }
          }
        }
      }
    }
  }
}
MOTION
Frames:	4
Frame Time:	0.00833333
-26.2188 92.4558 -71.3707 0.994276 0.222639 0.234869 9.63379 -0.250344 -7.15256e-007 0.954856 -0.424105 10.3861 0 -40.4779 -1.71313 0.119816 3.24098 -0.0384312 0.0126047 -40.4416 -0.864524 0.0647666 -0.949084 -0.00752657 -0.183287 -12.1867 8.28226 -4.34854e-011 6.63897e-011 -4.16653e-012 -9.63379 -0.250344 -7.15256e-007 -1.82343 -1.0814 6.87872 0 -40.478 -1.71313 1.18775 3.10291 -1.39877 -0.0126047 -40.4414 -0.864524 -0.00575118 -2.24069 0.000166143 0.183287 -12.1867 8.28226 -3.4809e-012 -1.854e-011 -2.46429e-011 -2.64698e-023 5.60909 -1.89659 -0.0566351 0.187031 -0.282412 0 6.56349 1.09934 -0.0866812 0.383334 -0.570171 0 7.57662 1.04304 -0.0866353 0.383333 -0.570179 0 8.29213 0.399731 -0.0865893 0.383332 -0.570186 0 8.9581 -0.526302 -0.0865433 0.383332 -0.570193 0 18.4163 -4.35419 -3.07678 -0.214733 2.50803 1.05879e-022 8.97127 1.78542 0.629615 -4.86329 1.45286 6.14423 15.3316 -3.79324 -23.6357 2.66984 -5.40893 9.01906 -1.11411 -1.79347 -54.7204 15.6774 -8.55287 27.687 0 0 -4.63985 26.5822 -13.3211 27.8738 0 0 12.5741 -0.250238 4.38842 -6.14423 15.3316 -3.79324 25.722 9.08256 24.4638 -9.01884 -1.11411 -1.79347 58.4456 15.4719 1.00814 -27.0381 0.00109999 5.96046e-008 -8.62422 -5.62883 0.52047 -28.5227 0 0 -2.92289 -1.43433 -6.52227 
-26.2197 92.4562 -71.36 0.98448 0.192037 0.240187 9.63379 -0.250344 -7.15256e-007 0.963157 -0.393176 10.3951 0 -40.4779 -1.71313 0.128852 3.25431 -0.0384317 0.0126047 -40.4416 -0.864524 0.064765 -0.961365 -0.0075266 -0.183287 -12.1867 8.28226 -4.34854e-011 6.63897e-011 -4.16653e-012 -9.63379 -0.250344 -7.15256e-007 -1.82166 -1.02374 6.80109 0 -40.478 -1.71313 1.18292 3.06425 -1.39518 -0.0126047 -40.4414 -0.864524 -0.00575125 -2.21634 0.000166141 0.183287 -12.1867 8.28226 -3.4809e-012 -1.854e-011 -2.46429e-011 -2.64698e-023 5.60909 -1.89659 -0.0566598 0.186025 -0.276762 0 6.56349 1.09934 -0.0778357 0.381373 -0.559279 0 7.57662 1.04304 -0.0777902 0.381371 -0.559287 0 8.29213 0.399731 -0.0777447 0.38137 -0.559294 0 8.9581 -0.526302 -0.0776992 0.381369 -0.559301 0 18.4163 -4.35419 -3.1956 -0.0368715 2.51371 1.05879e-022 8.97127 1.78542 0.71079 -4.98602 1.40564 6.14423 15.3316 -3.79324 -23.6522 2.70546 -5.52264 9.01906 -1.11411 -1.79347 -54.7386 15.7006 -8.50627 27.687 0 0 -4.72051 26.4585 -13.2544 27.8738 0 0 12.626 -0.246651 4.36835 -6.14423 15.3316 -3.79324 25.684 9.06746 24.4497 -9.01884 -1.11411 -1.79347 58.4901 15.455 0.968087 -27.0381 0.00109999 5.96046e-008 -8.61442 -5.61358 0.514903 -28.5227 0 0 -2.93473 -1.44085 -6.53409 
-26.2212 92.4561 -71.3452 0.974219 0.159977 0.252413 9.63379 -0.250344 -7.15256e-007 0.972404 -0.357956 10.4051 0 -40.4779 -1.71313 0.138448 3.26603 -0.0384321 0.0126047 -40.4416 -0.864524 0.0647633 -0.974352 -0.00752663 -0.183287 -12.1867 8.28226 -4.34854e-011 6.63897e-011 -4.16653e-012 -9.63379 -0.250344 -7.15256e-007 -1.81959 -0.960376 6.70933 0 -40.478 -1.71313 1.17724 3.02531 -1.39094 -0.0126047 -40.4414 -0.864524 -0.00575131 -2.19408 0.000166138 0.183287 -12.1867 8.28226 -3.4809e-012 -1.854e-011 -2.46429e-011 -2.64698e-023 5.60909 -1.89659 -0.057245 0.185648 -0.272409 0 6.56349 1.09934 -0.0697967 0.380675 -0.550997 0 7.57662 1.04304 -0.0697515 0.380672 -0.551005 0 8.29213 0.399731 -0.0697062 0.380669 -0.551013 0 8.9581 -0.526302 -0.0696609 0.380667 -0.551021 0 18.4163 -4.35419 -3.29851 0.126937 2.51899 1.05879e-022 8.97127 1.78542 0.780574 -5.10017 1.36501 6.14423 15.3316 -3.79324 -23.6664 2.7366 -5.6221 9.01906 -1.11411 -1.79347 -54.7583 15.7206 -8.46207 27.687 0 0 -4.79187 26.3451 -13.1954 27.8738 0 0 12.6684 -0.243551 4.34931 -6.14423 15.3316 -3.79324 25.6515 9.0552 24.4395 -9.01884 -1.11411 -1.79347 58.5311 15.4414 0.931219 -27.0381 0.00109999 5.96046e-008 -8.60571 -5.60353 0.509315 -28.5227 0 0 -2.94304 -1.44691 -6.54696 
-26.2237 92.4545 -71.3204 0.962812 0.12427 0.281909 9.63379 -0.250344 -7.15256e-007 0.984027 -0.312007 10.4178 0 -40.4779 -1.71313 0.149447 3.27372 -0.0384324 0.0126047 -40.4416 -0.864524 0.0647614 -0.989104 -0.00752666 -0.183287 -12.1867 8.28226 -4.34854e-011 6.63897e-011 -4.16653e-012 -9.63379 -0.250344 -7.15256e-007 -1.81686 -0.882775 6.58223 0 -40.478 -1.71313 1.16944 2.98565 -1.38508 -0.0126047 -40.4414 -0.864524 -0.00575136 -2.17708 0.000166136 0.183287 -12.1867 8.28226 -3.4809e-012 -1.854e-011 -2.46429e-011 -2.64698e-023 5.60909 -1.89659 -0.0592323 0.186845 -0.2713 0 6.56349 1.09934 -0.0637756 0.383134 -0.549242 0 7.57662 1.04304 -0.0637301 0.383129 -0.54925 0 8.29213 0.399731 -0.0636845 0.383125 -0.549259 0 8.9581 -0.526302 -0.0636388 0.383121 -0.549267 0 18.4163 -4.35419 -3.36159 0.255614 2.52326 1.05879e-022 8.97127 1.78542 0.822267 -5.19287 1.34089 6.14423 15.3316 -3.79324 -23.6753 2.75654 -5.68594 9.01906 -1.11411 -1.79347 -54.7817 15.7324 -8.42391 27.687 0 0 -4.84057 26.2575 -13.1556 27.8738 0 0 12.6866 -0.241668 4.33287 -6.14423 15.3316 -3.79324 25.633 9.05003 24.4392 -9.01884 -1.11411 -1.79347 58.5629 15.4361 0.902297 -27.0381 0.00109999 5.96046e-008 -8.59975 -5.60646 0.503676 -28.5227 0 0 -2.94256 -1.45184 -6.56244 
